<svg id="Layer_1" data-name="Layer 1" xmlns="http://www.w3.org/2000/svg" viewBox="0 0 489.89 493.8"><defs><style>.cls-1{fill:#ea564f;}.cls-2{fill:#efe62c;}.cls-3{fill:#20201e;}.cls-4{fill:#4a4a48;}</style></defs><title>logo-ckan-no-text</title><path class="cls-1" d="M710.57,37.86c-1.89,1.36-4,2.5-5.64,4.13Q629,118.39,553.18,194.89q-34.49,34.78-68.89,69.64c-2.81,2.86-4.37,3.19-7.4.14Q365.81,152.4,254.56,40.29c-1.1-1.11-2.68-2-2.93-4.08H709.26Z" transform="translate(-238.1 -36.21)"/><path class="cls-2" d="M238.1,512.66V48.8c5.64,5.66,10.62,10.64,15.58,15.64l113,113.93q48.75,49.16,97.55,98.26c3,3,3.51,4.59.22,7.87-25.36,25.3-50.13,51.21-75.84,76.15-18.17,17.62-36.22,35.36-53.73,53.6-19.71,20.54-40.56,39.95-60,60.71C263.16,487.47,250.83,499.33,238.1,512.66Z" transform="translate(-238.1 -36.21)"/><path class="cls-3" d="M240.94,528.9c10.35-10.58,20.63-21.23,31.06-31.74q140.76-142,281.57-283.88c0.7-.71,1.48-1.33,2.22-2,0.36,1.47,2.33,2,2.23,3.73-10.68,10.92-21.22,21.95-32.49,32.29-9.16,8.4-17.3,17.91-26,26.75-30.78,31.13-61,62.8-92.78,93-10.83,10.29-20.8,21.47-31.25,32.14C339.41,436,303,472.4,266.72,508.92c-5.1,5.13-10.54,9.93-15.82,14.89l1,1.37h4.33q231,0,462,.11c4.38,0,5-1.33,5-5.27q-0.14-187,0-374c0-2,.08-4,0.12-6l4.38,0c0.06,1.66.18,3.32,0.18,5q0,189.23,0,378.47c0,7.37.8,6.43-6.33,6.43q-237.48,0-475,0c-1.83,0-3.65-.14-5.48-0.22A1.21,1.21,0,0,0,240.94,528.9Z" transform="translate(-238.1 -36.21)"/><path class="cls-4" d="M727.61,140.08l-4.38,0c-0.08-1.82-.23-3.65-0.23-5.47q0-39.71,0-79.43c0-1.59,0-3.18,0-5.62-5.34,5-10.13,9.23-14.65,13.74-35.45,35.39-70.76,70.91-105.53,107C588.16,185.43,573,200.11,558,215c0.11-1.75-1.86-2.26-2.23-3.73,12.81-13.06,25.59-26.17,38.45-39.18,18.85-19.07,38-37.87,56.6-57.17,24-24.93,48.93-49,73.22-73.68,0.88-.89,1.56-2.2,3.08-2.24,1.18,0.64.79,1.76,0.79,2.68q0,48,0,95.94A18.1,18.1,0,0,1,727.61,140.08Z" transform="translate(-238.1 -36.21)"/><path class="cls-4" d="M240.94,528.9a1.21,1.21,0,0,1,.12.86l-0.73-.1Z" transform="translate(-238.1 -36.21)"/></svg>